# https://github.com/mikedh/trimesh
v -0.64230659 1.58812437 -0.52689062
v -0.60943486 1.52069163 -0.54419529
v -0.62475034 1.27626316 -0.16377263
v -0.61566931 1.27982923 -0.00452472
v -0.73868754 1.47335813 -0.36634799
v -0.90923743 1.27925408 0.27095493
v -0.88352588 1.22005899 0.21240082
v -0.66037992 1.30341544 0.10329008
v -0.71922216 1.60599036 -0.46269719
v -0.68522830 1.54933339 -0.39650770
v -0.62459850 1.42696058 -0.52460105
v -0.74237588 1.26390574 -0.30747802
v -0.67664228 1.31349627 -0.41898403
v -0.73964073 1.58472649 -0.46808379
v -0.61970833 1.39786161 -0.31213959
v -0.67732445 1.54140679 -0.51587443
v -0.80825586 1.51845954 -0.35899263
v -0.76315296 1.41132288 -0.07283849
v -0.76733610 1.26950946 -0.11480344
v -0.75360196 1.30744907 -0.08226777
v -0.70253130 1.34881729 -0.45674468
v -0.62738010 1.42660788 -0.21423738
v -0.74758227 1.53144003 -0.30809658
v -0.28729901 0.58368796 -0.29883293
v -0.12963353 0.03832060 -0.19386397
v 0.05834317 0.02450246 -0.11274695
v 0.20088316 0.23336479 -0.22951878
v -0.34516609 0.34070910 -0.06670916
v -0.33439065 0.21598280 -0.03946249
v -0.28325337 0.29897359 -0.23186342
v -0.36696999 0.44683004 -0.10348171
v -0.05240992 0.57181999 -0.32357712
v -0.18391936 0.53440302 -0.33705260
v 0.11985446 0.67812648 -0.21322289
v -0.02261491 0.32745342 -0.29655365
v -0.09672839 0.24882598 -0.28022473
v 0.18795962 0.02725908 0.00794066
v 0.24695778 0.10736412 -0.03579478
v 0.07628660 0.02276818 0.29735228
v 0.16820793 0.02940426 -0.12021518
v 0.46333908 0.75239143 0.09605764
v 0.25042876 0.97655678 0.07774863
v 0.10197183 0.74622035 -0.15091246
v 0.25410698 0.94309561 0.01097018
v 0.11387202 0.93232403 -0.07876827
v 0.11612238 1.05007266 0.12684703
v 0.11122294 1.00790290 0.02226583
v 0.15927870 0.95869791 0.42840196
v -0.16976195 0.56600523 0.67714410
v -0.28934248 0.57070296 0.53083170
v -0.36223384 0.53636062 0.54689006
v -0.46258130 0.45134552 0.53142580
v -0.60789262 0.63480970 0.57951780
v -0.74604123 0.64881719 0.52676280
v -0.84291497 0.52232892 0.39235815
v -0.77641451 0.98051112 0.02464640
v -0.88389259 1.03215573 0.58756837
v -0.76582341 1.10186581 0.65437069
v -0.74053094 0.80867423 0.48498711
v -0.84736343 0.85537969 0.40255723
v -0.91116993 0.64811298 0.33970713
v -0.88439142 0.54025481 0.19252894
v -0.91355805 0.61556114 0.18004080
v -0.88715855 0.73604132 0.36251220
v -0.85255293 0.57898011 0.40603375
v -0.92122937 0.91761181 0.40715335
v -0.92518010 1.02475114 0.45578647
v -0.73625156 1.22722420 0.55414939
v -0.89061121 1.12046815 0.40978994
v -0.91772334 1.23095770 0.36851289
v -0.84000024 1.23964074 0.48809003
v -0.78891635 1.14686374 0.61428122
v -0.88098799 0.97055263 0.08695943
v -0.83484276 0.86031039 0.10823167
v -0.73287012 1.08135060 0.01808296
v -0.42385714 0.98860262 -0.01973762
v -0.26137119 0.99478156 0.22617624
v -0.05478618 0.91968168 -0.07183762
v -0.32713197 0.84245193 -0.11165721
v -0.33605187 0.92761433 -0.03741046
v -0.39323670 1.01438939 0.03056967
v -0.28114946 0.96950843 0.04572312
v -0.26246217 0.96353755 0.32444115
v -0.29627106 1.00847004 0.23446080
v -0.60285558 0.96752334 0.00697880
v -0.75261178 0.43793848 0.43919923
v -0.57596675 0.26737814 0.16832475
v -0.56248203 0.03197662 0.24572331
v -0.74646520 0.04224948 0.07208835
v -0.68755734 0.14537221 0.19460669
v -0.64858928 0.39422463 0.45580092
v -0.08510701 0.63085361 0.67493082
v -0.28093513 0.68908976 0.55729639
v -0.44483745 0.95474408 0.37814687
v -0.41761925 1.03228352 0.25026179
v -0.81374167 0.83059365 0.41505082
v -0.39046265 0.73104431 0.52758271
v -0.24210850 0.91919257 0.40746204
v -0.15705686 0.92105997 0.44659413
v -0.21285829 0.67093023 0.56650360
v 0.05721088 0.69115692 0.61948768
v -0.04585206 1.00398695 0.00751402
v 0.27712611 0.92358722 0.39806910
v 0.33017753 0.93178232 0.10516964
v 0.38459468 0.86798140 0.08945092
v 0.21268422 0.29972008 0.57958554
v 0.20236704 0.15914776 0.51898586
v 0.24818458 0.24066070 0.55588193
v 0.15570928 0.23500185 0.60913776
v 0.28720309 0.28793114 0.53981475
v 0.31231868 0.22857707 0.48657568
v 0.52181018 0.27972844 0.38474191
v 0.55572858 0.42865316 0.20165408
v 0.02678318 0.01972353 0.49831696
v 0.17169728 0.02090994 0.39516899
v -0.31651939 0.07689737 0.08012876
v -0.59213080 0.06792721 -0.03302413
v -0.44235393 0.18453922 -0.02989176
v -0.78199620 0.45879952 0.02447983
v -0.83571908 0.55816713 0.02898168
v -0.78263482 0.69533037 -0.03920985
v -0.74004987 0.57063086 -0.07954862
v -0.47252222 0.66439025 -0.14294689
v -0.42143152 0.87805309 -0.08673692
v -0.87902943 0.62438367 0.08614726
v -0.66852438 0.45033267 -0.06683198
v -0.60766491 0.19209073 0.11351412
v -0.43883603 0.34037619 -0.05425991
v -0.50986401 0.40191098 -0.05979994
v -0.38101329 0.16146260 -0.20246211
v -0.46157225 0.04035174 -0.19503819
v 0.07787299 0.02759523 0.11176887
v 0.01501292 0.02750951 0.22415084
v 0.15864306 0.02594884 0.07469687
v 0.24014317 0.03441215 0.24164832
v 0.43454331 0.10624185 0.35620786
v 0.54924373 0.15955496 0.31619316
v 0.46100242 0.15196347 0.39338902
v 0.63375194 0.38983413 0.11103199
v 0.39937301 0.23845797 -0.01267313
v 0.33059456 0.32321482 -0.14226675
v 0.61852573 0.18101296 0.16245429
v 0.66089883 0.37002174 0.20032440
v 0.45085360 0.15668540 -0.01264005
v 0.65917991 0.28681629 0.12999876
v 0.44525561 0.05797418 0.12689505
v 0.31724753 0.01789521 0.18262749
v -0.50684833 0.19227267 0.25538117
v -0.62800023 0.08208364 0.30202406
v -0.66326907 0.11876412 0.38122434
v -0.67834300 0.05928467 0.49630548
v -0.10407864 0.54459595 0.67944567
v 0.10778833 0.60778640 0.65352719
v 0.31046496 0.39940466 0.51929980
v 0.35392064 0.47263546 0.51796827
v -0.14183938 0.22478260 0.59834840
v 0.00199691 0.28036530 0.63982715
v 0.03522728 0.20435844 0.63725629
v -0.12917472 0.33069523 0.63797186
v -0.09734729 0.16336151 0.57970819
v -0.05067153 0.29002674 0.65307035
v -0.00858151 0.13679658 0.56000396
v 0.49944551 0.66099259 0.17938615
v 0.45589206 0.62049122 -0.02434715
v 0.37974649 0.50915768 -0.12851659
v 0.27502701 0.39488836 -0.19976897
v 0.29522443 0.18688293 -0.14430526
v 0.24128203 0.18883415 -0.18239938
v 0.06819438 0.07640594 -0.05908813
v -0.22670501 0.45086009 -0.33452571
v -0.32306554 0.47699731 -0.26487503
v -0.29235295 0.20411379 -0.17224602
v -0.32932004 0.12973851 -0.23997242
v -0.06853519 0.48592377 -0.32182094
v 0.14027326 0.61270948 -0.25551203
v -0.68205208 1.25230876 -0.25133850
v -0.16148057 0.34233909 -0.31726656
v -0.36313258 1.49239791 -0.01998332
v -0.15253897 1.35737274 0.03915830
v -0.10631650 1.37772687 -0.07010888
v -0.09683120 1.62771237 -0.19565833
v -0.11428527 1.50605142 -0.11372531
v -0.15111971 1.63397313 -0.08063637
v -0.08737968 1.58975608 -0.22627512
v -0.00092027 0.65900284 -0.28401683
v -0.05638020 1.47323223 -0.20244340
v 0.11618471 0.39315164 -0.26908572
v -0.06541362 0.38989604 -0.30081955
v 0.24961051 0.48070698 -0.21341291
v 0.21836791 0.31110472 -0.22515558
v 0.08133244 0.49209003 -0.28762683
v -0.19576322 0.65076314 -0.30534270
v -0.18623979 1.52461939 -0.14074342
v -0.18481793 0.23155138 -0.26938054
v -0.21106263 0.15479479 -0.22163635
v -0.06545624 1.41520901 -0.09450481
v 0.21339496 0.16080946 -0.16847142
v 0.03894493 0.24697170 -0.25765889
v -0.13567047 1.42524075 -0.11769883
v -0.01945535 0.17102234 -0.25232300
v -0.05695273 0.72649167 -0.18905210
v 0.31478645 0.62298539 -0.15742034
v 0.07044024 0.85983090 -0.14079069
v -0.28408981 0.67060888 -0.17667918
v -0.39564346 0.56572704 -0.13730833
v -0.35035416 0.56689758 -0.17517951
v 0.32552838 0.77605272 -0.08618336
v 0.43142524 0.67544352 -0.03287612
v -0.78923437 1.36047830 -0.12603416
v -0.38346772 0.05789589 -0.25076246
v 0.21684755 0.61714493 -0.20048415
v -0.16612614 1.63761866 -0.09723409
v -0.17957805 0.77868099 -0.16454379
v -0.09127169 0.72297813 -0.17907031
v 0.22209839 0.73015112 -0.16602249
v -0.04972096 0.83538741 -0.15558009
v -0.20800982 0.85048947 -0.12411731
v -0.30525294 0.77177253 -0.15128153
v -0.70933073 1.46066859 -0.12737317
v -0.62410220 1.18248265 0.03662841
v -0.53862480 1.28828797 0.42729180
v -0.53239794 1.21121796 0.42204997
v -0.48896352 1.21330659 0.22179082
v -0.44785639 1.29692032 0.19743738
v -0.31271629 1.48635389 0.09062361
v -0.61602458 0.75379413 0.54166412
v -0.46961566 1.04270278 0.41641540
v -0.75202556 0.97514081 0.66765153
v -0.27801671 1.29799238 0.02236230
v -0.61697836 1.25957048 0.07154706
v -0.59260712 1.31312341 0.13128110
v -0.57253896 1.27733041 0.09675522
v -0.52302371 1.19989743 0.09657543
v -0.54200177 1.36745072 0.15157807
v -0.28314914 0.03936145 -0.22920840
v 0.14999021 0.15484906 -0.20743780
v -0.15529169 0.02809975 -0.14509604
v -0.01762120 0.12804801 -0.19715478
v -0.33957599 0.25764269 -0.02673380
v -0.26073875 1.42444801 0.01146749
v 0.42663857 0.57046296 -0.09016134
v 0.27818860 0.86075146 -0.05863100
v 0.00794794 0.85495303 -0.12836444
v -0.45763948 0.11565784 -0.16064742
v -0.68820877 0.74201695 -0.07251513
v -0.61188520 0.74028912 -0.10465198
v -0.56709442 0.89738572 -0.06737584
v -0.50254904 0.77056725 -0.12930369
v -0.19339696 0.91729716 -0.05507955
v 0.12504641 0.04791637 -0.17976118
v -0.47058046 0.49278605 -0.10580920
v -0.25931739 0.08375624 -0.11238901
v -0.77688786 1.28469917 0.08824477
v -0.76303814 1.21589441 0.04152217
v -0.66941505 1.17728317 0.01690119
v -0.64575667 1.42406734 -0.13395517
v -0.22669154 1.58383942 0.01255992
v 0.39391957 0.37623268 -0.09336510
v -0.58880139 0.53238485 -0.12740894
v 0.03348655 0.02643293 0.09989101
v 0.35531575 0.26021940 -0.09110031
v 0.46210460 0.48464918 -0.00948935
v -0.12934126 0.98171671 0.02984446
v -0.74564523 0.89242397 0.02963144
v -0.51430007 0.04438355 -0.05911663
v -0.38506529 0.08393517 -0.03801843
v -0.37154419 0.03766837 -0.13224826
v -0.46012673 0.03279635 -0.00624727
v -0.37317767 0.02827828 0.15256807
v -0.36268311 0.07537773 0.03644755
v 0.35919222 0.84279396 -0.00678885
v -0.35631941 1.38607432 0.09391443
v 0.45041426 0.31756459 0.02441260
v 0.59090785 0.37903586 0.06962071
v -0.36441430 1.36589895 -0.03951795
v -0.38344053 1.24219367 0.11284875
v -0.34021320 1.27915125 0.11217015
v -0.55820293 1.12329895 0.05209619
v -0.47651446 1.03664527 0.06733598
v 0.33432265 0.17126129 -0.02505063
v 0.55445458 0.16179995 0.04779449
v -0.81959165 1.07237586 0.06041811
v -0.12364906 1.02118697 0.13270738
v -0.83444323 1.18754584 0.12358786
v -0.39727355 1.49820222 0.04702671
v 0.45839198 0.21491716 -0.02558172
v -0.87352790 0.73264792 0.09065817
v -0.70565160 1.32901924 0.11722167
v -0.50946461 0.20131950 -0.00550571
v -0.75932110 0.36842567 0.19232588
v -0.71366761 0.32736922 0.26640211
v -0.58849445 0.33367411 0.03601144
v -0.67892433 0.34316386 0.06669746
v -0.65170002 1.32943410 0.26379648
v -0.84166643 1.28837961 0.16992872
v -0.70509133 0.10171840 0.02103105
v 0.25524299 0.05668465 0.02368178
v 0.32427591 0.05250576 0.05097674
v 0.40639042 0.05497609 0.08152661
v 0.55771658 0.27799948 -0.00154553
v -0.37884901 1.32671349 0.16129431
v -0.49358039 1.18300504 0.11953852
v -0.90326951 1.07181731 0.15292448
v -0.07954863 1.03717159 0.25066694
v -0.01977265 0.07146561 0.12481291
v -0.81658813 0.42512652 0.24332353
v -0.79976722 0.43291363 0.11955387
v -0.05894479 1.00345091 0.39342993
v -0.64131611 0.03684779 -0.00003118
v -0.75887123 0.07136835 0.16769722
v -0.65666781 0.03328943 0.12118761
v -0.63257357 0.14551572 0.22595603
v -0.70135089 0.15517763 0.10899612
v 0.07084677 0.08035818 -0.02818954
v -0.13328706 0.07221923 0.15729704
v -0.02912144 0.06986330 0.20855610
v -0.11209435 0.07605742 0.06939576
v -0.56096543 0.20587560 0.03326424
v -0.59040593 0.21715463 0.15187377
v -0.43064361 1.04478541 0.15929296
v -0.47259666 1.09529418 0.34308382
v -0.49307720 1.25843441 0.23698391
v -0.90366914 0.71179946 0.16976819
v 0.42231420 0.39778584 0.43768570
v 0.34913793 0.17579692 0.42490193
v -0.56900355 1.14389113 0.45037863
v 0.24178468 0.02178284 0.09354657
v 0.44172745 0.77451865 0.31778634
v 0.03940445 1.05118369 0.22394678
v 0.14562628 1.03119647 0.32607714
v 0.28307157 0.97384812 0.29828277
v -0.37318240 1.45261805 0.12865663
v -0.53834121 1.31863727 0.22772775
v -0.59829799 0.28565379 0.19549170
v -0.70397851 0.33786467 0.11868084
v 0.50442852 0.61346291 0.10487381
v 0.51000148 0.42546688 0.12722378
v 0.51071264 0.41308798 0.25275222
v -0.91594113 1.11590122 0.28543337
v -0.68719195 0.04739449 0.24803129
v 0.39431141 0.86294996 0.32798361
v -0.48405772 1.18001160 0.18595753
v -0.93398223 0.88556374 0.23370804
v -0.88426978 0.82769511 0.25516546
v -0.26895545 0.07305591 0.15585164
v -0.38437327 0.04301849 0.33859068
v -0.74845203 0.36291030 0.27513647
v -0.81468404 0.44757243 0.31605773
v -0.93463435 0.88949508 0.30684141
v -0.47167361 0.04895891 0.16021360
v 0.64027733 0.30311583 0.29302740
v 0.58940535 0.22598545 0.33646944
v -0.63365864 0.04130580 0.30805319
v -0.31136408 0.03631435 0.20409237
v -0.96099287 0.99097873 0.30244809
v -0.86312115 1.30483028 0.31790248
v -0.16828879 0.95022053 0.40286913
v -0.01643800 1.01886889 0.36470836
v 0.05394993 0.95483250 0.44430182
v -0.34958175 0.97756436 0.35849072
v -0.37629746 0.92867329 0.41037393
v 0.28386042 0.65033630 0.55879199
v 0.05259529 0.73227017 0.53627174
v 0.48798601 0.64993773 0.30528150
v 0.56546690 0.12865567 0.24444524
v 0.59798214 0.40799444 0.27520749
v 0.57245749 0.34914925 0.34141167
v -0.36507739 0.04887073 0.22301108
v -0.85464309 1.30759369 0.35896093
v -0.88075502 0.52158522 0.27371481
v 0.31262261 0.03542400 0.28309508
v -0.25904585 0.06857197 0.24643109
v -0.31811251 0.02629597 0.26909277
v -0.50194084 0.20080007 0.46805408
v -0.36874491 0.33406480 0.52163722
v -0.42421549 0.38302832 0.52216767
v -0.51011937 0.25511937 0.26212089
v -0.65079557 0.37342476 0.43536053
v -0.51352001 1.15249726 0.36858392
v 0.47480167 0.34284797 0.33758043
v 0.41589459 0.66949493 0.43571646
v -0.54235082 0.19236418 0.37557758
v -0.68381483 0.04478083 0.41784998
v 0.36120584 0.86778729 0.37295153
v -0.53642807 0.30015516 0.35144505
v 0.35394705 0.12513872 0.37295158
v 0.30074470 0.07256890 0.37366763
v -0.60239616 1.12789913 0.47773496
v 0.50068464 0.53597954 0.30437949
v 0.10430466 0.07306868 0.38389881
v 0.01267102 0.06890918 0.29839152
v -0.23557517 0.05055981 0.64999181
v -0.32417590 0.11848435 0.59505492
v -0.30636731 0.03281242 0.51606570
v -0.45325522 0.24294571 0.49492975
v 0.40967787 0.21545979 0.38671438
v 0.46439363 0.53914165 0.38630585
v -0.16211486 0.06921343 0.30546533
v 0.23176423 0.79751638 0.49131567
v 0.22327801 0.91818343 0.43383373
v 0.38738496 0.59323709 0.49535387
v -0.69672997 1.32228901 0.39947847
v -0.08295856 0.90878153 0.47778632
v -0.57596530 0.86495616 0.47546928
v -0.35399421 0.84773929 0.46379048
v -0.49365919 0.90249744 0.43848083
v -0.54769201 0.97107158 0.52182525
v -0.60003025 1.21485182 0.50173202
v -0.69269771 1.14668139 0.60761657
v -0.61988871 1.27394655 0.48574268
v -0.60803257 0.03583814 0.32016065
v -0.65722485 0.83376324 0.49523865
v -0.70165935 0.86692263 0.63819517
v -0.78896318 0.84854289 0.58665701
v -0.26105231 0.77421238 0.51973815
v -0.03491826 0.87911871 0.50232852
v 0.40881980 0.31069626 0.45128911
v -0.49322213 0.82697109 0.49424558
v -0.59040213 0.94389911 0.54251089
v -0.61976139 1.08251586 0.51715375
v -0.80026162 0.59205569 0.47675350
v -0.67365843 0.54725008 0.55142734
v -0.79007020 0.56753077 0.48262996
v 0.07813552 0.83731033 0.51808812
v -0.29218405 0.51013041 0.51619306
v -0.46442794 0.57892566 0.56832541
v -0.50451357 0.33829237 0.44128634
v -0.59510456 0.44867429 0.52467599
v 0.39988498 0.43330954 0.46664225
v -0.21276755 0.07713098 0.47439781
v 0.32300654 0.76173747 0.47737981
v -0.87634662 1.16277296 0.52719610
v -0.93723293 0.93784352 0.54670284
v -0.84246849 0.99468003 0.63234690
v -0.28353467 0.08829405 0.63247565
v -0.16129627 0.03056602 0.60766911
v -0.19675545 0.13689490 0.63572937
v -0.32758935 0.20414151 0.47768025
v -0.26772760 0.19554020 0.54636328
v -0.27049786 0.23559655 0.45332084
v 0.27328787 0.56102728 0.57871592
v -0.77699015 0.51612911 0.46754450
v 0.21280560 0.73698679 0.55675629
v -0.92000000 0.99850000 0.54640000
v -0.27463245 0.28055314 0.46100791
v -0.61870711 0.87366036 0.52749126
v -0.03899206 0.80324501 0.53755123
v -0.13921903 0.77679748 0.53049513
v -0.89663462 0.86305096 0.51949439
v -0.38829727 0.06259354 0.53027400
v 0.19746449 0.02472961 0.49800531
v -0.63238047 0.70919677 0.54409173
v -0.52522472 0.69955962 0.55012761
v -0.07155212 0.72826502 0.54144104
v -0.85951419 0.88238418 0.60344692
v -0.59501922 0.04042060 0.57125681
v -0.38167685 0.16032204 0.50292207
v -0.53255826 0.53502448 0.56771828
v -0.56842724 0.57961080 0.56449751
v -0.56059398 0.07603876 0.59178737
v -0.61852453 0.14730577 0.52975784
v -0.64180662 0.16642712 0.45485701
v -0.46304283 0.68674638 0.55311153
v -0.40229433 0.57703811 0.53441911
v -0.35067565 0.62628396 0.55011176
v -0.55951379 0.16438539 0.54550082
v 0.11149305 0.70028908 0.57694746
v -0.63895295 0.96066866 0.64351262
v -0.66770400 0.94593692 0.66709315
v -0.24389804 0.65499516 0.55016799
v -0.26172870 0.38779418 0.48888822
v 0.19764934 0.61139047 0.61602909
v 0.20750280 0.47559840 0.63058423
v 0.14147010 0.48565853 0.64743518
v 0.23553873 0.05998442 0.50135743
v 0.23506177 0.58448055 0.58239411
v -0.39740215 0.03593076 0.51798460
v -0.47143219 0.19935244 0.48371714
v -0.78609840 1.04813479 0.66928188
v 0.03742159 0.16344610 0.59570636
v 0.11951380 0.11355549 0.53330269
v -0.31358074 0.03710400 0.59935961
v -0.17646748 0.19371391 0.56478643
v -0.13422339 0.67143545 0.63323046
v 0.27715667 0.41697709 0.57402916
v -0.15217791 0.31822091 0.62098431
v 0.04653132 0.31497584 0.66496869
v 0.03209784 0.38289183 0.66672439
v 0.14621754 0.34454651 0.63582642
v -0.10018416 0.37530421 0.64020703
v 0.02504506 0.03255269 0.55407025
v -0.22155699 0.52233715 0.64936703
v -0.13574822 0.47023056 0.67064007
v -0.02254000 0.52616661 0.67287402
v -0.02106251 0.44544175 0.68948441
v 0.10827633 0.25756842 0.62187947
v 0.05811681 0.49812639 0.67044501
v -0.47503381 0.03427976 0.36692187
v -0.10444166 0.03326928 0.52388616
v -0.30266848 0.07003139 0.39968446
v -0.07039785 0.07517787 0.45691301
v -0.23959866 0.03191205 0.55288495
f 6 339 70
f 2 16 1
f 14 1 16
f 2 11 16
f 1 9 10
f 21 16 11
f 14 9 1
f 10 2 1
f 13 21 11
f 13 11 15
f 5 17 16
f 14 16 17
f 17 23 14
f 14 23 9
f 5 16 21
f 11 2 15
f 12 21 13
f 176 3 255
f 15 2 10
f 23 10 9
f 15 10 22
f 22 10 23
f 209 5 21
f 209 21 20
f 256 22 23
f 15 22 3
f 3 22 4
f 22 256 4
f 3 13 15
f 23 18 219
f 256 23 219
f 3 176 13
f 30 31 171
f 206 24 171
f 175 185 34
f 449 66 60
f 339 69 70
f 70 69 432
f 344 343 74
f 74 73 56
f 73 74 343
f 263 102 78
f 76 80 124
f 56 75 85
f 279 247 85
f 76 279 81
f 282 56 73
f 291 385 378
f 465 50 470
f 54 96 61
f 64 61 96
f 61 65 54
f 484 92 101
f 47 102 46
f 331 103 384
f 331 341 104
f 341 41 105
f 341 105 104
f 467 363 101
f 153 362 101
f 106 108 110
f 56 85 264
f 129 126 259
f 248 79 123
f 128 118 129
f 29 118 239
f 142 281 145
f 365 146 281
f 135 115 39
f 319 148 87
f 109 496 158
f 158 496 157
f 158 157 161
f 160 158 161
f 167 280 38
f 24 206 204
f 24 204 192
f 33 192 32
f 235 210 173
f 194 30 171
f 174 33 32
f 177 170 174
f 33 174 170
f 170 192 33
f 170 24 192
f 185 32 192
f 32 191 174
f 175 211 189
f 21 12 20
f 188 177 174
f 24 170 171
f 180 229 275
f 177 188 36
f 185 191 32
f 191 187 174
f 181 182 196
f 175 191 185
f 180 186 196
f 186 181 196
f 184 186 193
f 187 188 174
f 200 35 198
f 186 180 199
f 186 199 193
f 187 35 188
f 191 175 189
f 201 185 192
f 18 17 209
f 194 195 30
f 36 194 177
f 19 20 12
f 254 19 176
f 255 254 176
f 175 34 211
f 19 12 176
f 190 198 35
f 27 198 190
f 236 197 40
f 40 197 38
f 236 200 198
f 200 195 194
f 36 200 194
f 189 166 187
f 166 190 187
f 181 184 212
f 181 183 182
f 236 198 27
f 238 236 250
f 26 25 250
f 192 204 201
f 183 181 212
f 27 190 168
f 190 141 168
f 215 43 207
f 215 211 34
f 43 215 34
f 123 206 205
f 27 168 197
f 168 261 167
f 271 208 207
f 164 208 41
f 41 336 164
f 215 202 211
f 254 20 19
f 173 210 130
f 173 130 172
f 195 173 172
f 189 211 202
f 43 216 243
f 201 214 216
f 275 193 199
f 212 193 178
f 201 43 34
f 193 275 178
f 195 235 173
f 235 195 25
f 27 197 236
f 216 214 213
f 263 78 249
f 235 131 210
f 130 210 244
f 238 195 200
f 78 243 249
f 249 243 217
f 238 200 236
f 195 172 30
f 217 79 249
f 217 213 218
f 79 218 123
f 123 218 213
f 79 217 218
f 123 213 204
f 413 469 228
f 8 231 232
f 275 233 232
f 275 302 233
f 220 232 233
f 232 230 8
f 234 231 333
f 333 231 294
f 195 250 25
f 217 243 213
f 203 78 45
f 180 275 199
f 131 235 267
f 131 244 210
f 166 189 165
f 165 189 202
f 243 203 43
f 195 238 250
f 29 239 172
f 172 239 28
f 30 172 28
f 165 202 241
f 215 207 208
f 203 207 43
f 237 267 235
f 25 237 235
f 267 237 252
f 208 202 215
f 203 45 207
f 207 45 242
f 219 8 256
f 179 196 182
f 190 166 141
f 166 165 258
f 141 166 258
f 123 205 251
f 251 259 123
f 123 259 246
f 248 124 79
f 182 240 179
f 257 272 183
f 141 261 168
f 78 203 243
f 212 257 183
f 245 247 246
f 267 265 131
f 265 244 131
f 29 172 130
f 79 124 80
f 247 124 248
f 247 248 246
f 240 183 272
f 130 244 118
f 241 202 208
f 79 80 249
f 179 180 196
f 179 229 180
f 26 250 40
f 236 40 250
f 265 118 244
f 4 230 3
f 230 220 3
f 220 255 3
f 129 251 31
f 251 205 31
f 122 245 259
f 259 245 246
f 38 197 168
f 76 124 247
f 20 253 209
f 253 20 254
f 219 18 288
f 261 280 167
f 259 251 129
f 78 47 45
f 47 78 102
f 255 220 85
f 75 255 85
f 255 75 254
f 288 8 219
f 212 178 257
f 178 285 257
f 208 164 241
f 168 167 38
f 165 262 258
f 121 245 122
f 47 44 45
f 29 130 118
f 259 126 122
f 245 264 247
f 261 141 258
f 28 128 31
f 120 122 119
f 128 129 31
f 165 241 262
f 249 80 82
f 252 26 169
f 126 119 122
f 8 230 256
f 209 253 18
f 178 275 232
f 178 232 285
f 272 257 225
f 265 267 268
f 266 268 267
f 266 267 252
f 241 164 262
f 80 76 81
f 4 256 230
f 271 207 242
f 44 271 242
f 229 302 275
f 240 301 179
f 257 332 225
f 257 285 332
f 128 28 239
f 264 245 121
f 273 262 337
f 274 337 139
f 342 302 276
f 272 301 240
f 273 261 262
f 262 261 258
f 208 271 41
f 85 278 279
f 278 85 220
f 278 220 233
f 336 262 164
f 120 119 307
f 307 62 120
f 44 104 271
f 105 271 104
f 74 264 121
f 47 42 44
f 81 82 80
f 169 26 40
f 280 140 144
f 282 75 56
f 254 75 282
f 254 282 284
f 232 231 285
f 285 231 234
f 116 266 252
f 169 314 252
f 265 117 318
f 118 265 289
f 302 229 276
f 317 252 314
f 273 300 286
f 300 281 286
f 286 281 144
f 104 46 331
f 46 104 42
f 284 253 254
f 277 179 301
f 179 276 229
f 276 179 277
f 121 287 74
f 264 74 56
f 44 42 104
f 47 46 42
f 18 253 288
f 294 231 8
f 288 294 8
f 252 345 116
f 317 345 252
f 118 289 129
f 129 318 292
f 129 289 318
f 293 126 292
f 292 126 129
f 234 332 285
f 117 265 309
f 265 268 309
f 294 288 295
f 144 297 280
f 299 298 297
f 299 297 144
f 280 297 38
f 147 327 299
f 298 327 297
f 37 38 297
f 273 274 300
f 279 320 81
f 318 117 296
f 299 144 146
f 146 144 281
f 82 81 84
f 63 125 62
f 95 84 81
f 95 81 320
f 302 278 233
f 279 278 302
f 225 332 272
f 38 37 40
f 343 303 73
f 284 282 303
f 73 303 282
f 169 40 37
f 117 309 296
f 283 102 263
f 283 263 82
f 283 304 46
f 301 272 224
f 260 37 134
f 132 39 133
f 260 132 133
f 305 317 314
f 300 145 281
f 288 253 295
f 260 314 169
f 169 37 260
f 309 89 296
f 298 299 327
f 307 293 335
f 307 306 62
f 335 290 307
f 126 293 119
f 307 119 293
f 82 84 77
f 283 82 77
f 358 304 308
f 283 77 304
f 266 116 270
f 89 313 296
f 336 337 262
f 296 127 318
f 90 312 313
f 127 313 312
f 127 312 319
f 274 145 300
f 284 295 253
f 309 311 89
f 272 332 224
f 301 224 277
f 274 273 337
f 313 127 296
f 125 323 287
f 342 276 223
f 260 305 314
f 274 139 145
f 316 305 260
f 260 133 316
f 305 316 317
f 317 316 315
f 315 345 317
f 87 292 319
f 319 292 318
f 127 319 318
f 6 7 339
f 7 284 339
f 284 7 295
f 277 224 223
f 277 223 276
f 132 260 134
f 334 335 293
f 95 360 84
f 224 322 223
f 139 143 145
f 113 139 337
f 125 63 323
f 134 37 327
f 132 134 327
f 37 297 327
f 313 89 310
f 304 329 46
f 46 330 331
f 46 329 330
f 279 302 342
f 234 333 332
f 333 294 221
f 335 291 290
f 291 335 334
f 389 338 336
f 163 336 41
f 221 322 333
f 292 87 334
f 334 293 292
f 342 223 321
f 329 358 330
f 333 224 332
f 333 322 224
f 355 339 303
f 343 355 303
f 279 342 320
f 344 287 323
f 310 89 340
f 321 223 379
f 7 6 295
f 294 295 356
f 294 356 402
f 163 41 341
f 341 328 163
f 77 83 304
f 337 338 113
f 269 350 268
f 268 350 311
f 89 311 88
f 342 321 95
f 310 90 313
f 90 310 340
f 103 331 400
f 48 400 330
f 400 331 330
f 379 223 322
f 379 322 222
f 221 222 322
f 346 477 498
f 315 316 398
f 368 350 269
f 372 373 345
f 345 373 354
f 307 290 347
f 347 306 307
f 343 349 355
f 356 295 6
f 351 145 143
f 88 411 353
f 353 340 88
f 88 340 89
f 360 83 84
f 84 83 77
f 70 356 6
f 371 365 136
f 136 365 138
f 365 371 146
f 87 148 377
f 94 321 227
f 94 95 321
f 354 269 345
f 354 373 269
f 60 349 343
f 372 345 398
f 139 113 366
f 343 344 60
f 64 96 344
f 344 96 60
f 341 331 384
f 355 67 339
f 147 146 371
f 145 351 142
f 304 83 308
f 330 358 308
f 319 312 148
f 149 148 312
f 306 348 62
f 62 348 370
f 94 361 95
f 405 98 361
f 360 95 361
f 329 304 358
f 328 364 163
f 163 364 389
f 402 221 294
f 351 365 142
f 135 147 371
f 365 351 352
f 137 365 352
f 338 366 113
f 112 367 380
f 366 338 367
f 367 338 380
f 61 64 344
f 61 344 63
f 227 321 379
f 340 353 312
f 269 373 368
f 402 410 221
f 356 369 402
f 348 55 370
f 61 62 65
f 398 316 391
f 348 378 86
f 346 373 477
f 398 500 372
f 382 385 377
f 382 377 148
f 334 377 385
f 347 291 348
f 149 312 353
f 367 351 366
f 366 351 143
f 391 133 39
f 99 308 357
f 349 60 66
f 66 67 355
f 371 115 135
f 365 137 138
f 380 324 417
f 381 364 328
f 341 381 328
f 222 326 379
f 150 382 149
f 383 151 150
f 369 70 71
f 136 386 371
f 387 371 386
f 112 351 367
f 389 397 380
f 341 384 381
f 431 384 103
f 330 359 48
f 115 371 387
f 352 351 112
f 83 360 98
f 359 424 48
f 227 379 326
f 381 389 364
f 308 359 330
f 221 326 222
f 410 408 221
f 39 115 390
f 390 114 501
f 385 382 374
f 438 393 439
f 376 395 375
f 395 427 374
f 396 112 380
f 386 396 325
f 325 396 417
f 501 398 391
f 397 381 401
f 94 406 361
f 361 406 418
f 112 138 352
f 380 417 396
f 399 103 400
f 451 115 387
f 138 386 136
f 138 396 386
f 462 382 150
f 348 86 55
f 397 401 380
f 55 442 65
f 100 448 415
f 402 71 68
f 402 369 71
f 431 381 384
f 424 359 416
f 48 424 400
f 308 403 359
f 390 115 114
f 396 138 112
f 406 404 418
f 406 94 227
f 227 407 406
f 388 326 408
f 402 68 410
f 420 388 408
f 409 410 68
f 442 55 86
f 478 395 374
f 413 414 59
f 412 59 226
f 430 398 501
f 448 416 415
f 416 403 415
f 99 415 403
f 415 99 98
f 403 308 99
f 387 386 325
f 417 324 429
f 417 429 110
f 415 98 405
f 418 405 361
f 404 446 412
f 419 446 404
f 407 468 419
f 228 469 409
f 409 469 468
f 407 419 406
f 404 406 419
f 407 420 468
f 420 407 326
f 69 67 432
f 407 227 326
f 374 382 462
f 65 423 421
f 421 423 54
f 65 442 423
f 423 422 54
f 53 54 422
f 59 96 54
f 363 400 424
f 107 325 108
f 325 475 387
f 109 481 108
f 158 481 109
f 86 378 91
f 475 451 387
f 427 376 52
f 363 399 400
f 498 477 456
f 411 498 456
f 428 427 52
f 378 385 427
f 451 114 115
f 383 411 456
f 398 430 500
f 378 427 428
f 91 378 428
f 401 381 431
f 96 59 449
f 96 449 60
f 86 91 428
f 422 86 428
f 394 373 500
f 373 394 477
f 362 431 399
f 412 446 59
f 414 455 59
f 449 455 433
f 67 57 432
f 414 434 455
f 57 433 434
f 455 434 433
f 420 408 409
f 409 408 410
f 71 72 68
f 58 68 72
f 68 58 409
f 439 483 438
f 483 440 438
f 471 445 440
f 429 155 154
f 423 442 422
f 429 401 155
f 441 476 473
f 362 155 401
f 441 155 362
f 443 362 399
f 97 405 418
f 453 463 418
f 453 418 404
f 445 438 440
f 427 395 376
f 442 86 422
f 401 431 362
f 93 415 97
f 97 415 405
f 418 463 97
f 453 404 226
f 412 226 404
f 447 424 416
f 433 444 67
f 67 444 57
f 325 111 108
f 108 111 417
f 108 417 110
f 417 111 325
f 375 445 471
f 72 71 432
f 454 363 448
f 424 447 363
f 375 395 438
f 375 438 445
f 375 471 425
f 59 54 226
f 226 54 452
f 453 459 426
f 458 426 459
f 453 452 53
f 459 453 53
f 226 452 453
f 470 100 415
f 454 448 100
f 484 454 100
f 455 449 59
f 462 151 461
f 478 457 395
f 438 395 457
f 422 459 53
f 52 458 428
f 374 462 466
f 462 461 466
f 429 154 110
f 154 106 110
f 425 376 375
f 464 97 463
f 470 93 465
f 97 464 465
f 465 93 97
f 470 415 93
f 374 466 478
f 50 465 425
f 425 465 51
f 426 52 464
f 376 51 52
f 425 51 376
f 51 464 52
f 452 54 53
f 363 467 443
f 446 413 59
f 419 468 446
f 446 469 413
f 468 469 446
f 420 409 468
f 491 114 451
f 155 485 154
f 52 426 458
f 459 422 428
f 101 362 467
f 456 450 460
f 393 438 450
f 450 438 457
f 481 107 108
f 106 496 109
f 471 492 425
f 476 362 472
f 426 464 463
f 426 463 453
f 383 456 151
f 461 460 466
f 471 440 486
f 493 492 159
f 477 394 482
f 485 106 154
f 441 473 155
f 473 485 155
f 441 362 476
f 450 477 482
f 451 475 491
f 478 466 457
f 479 58 72
f 228 434 414
f 434 228 479
f 72 432 479
f 434 432 57
f 434 479 432
f 491 107 481
f 481 480 162
f 481 162 491
f 483 486 440
f 486 483 156
f 471 486 492
f 151 460 461
f 456 460 151
f 457 466 460
f 457 460 450
f 480 481 158
f 484 101 454
f 477 450 456
f 50 425 492
f 489 106 485
f 482 392 435
f 482 435 393
f 492 100 50
f 436 114 491
f 394 502 436
f 480 160 162
f 483 437 160
f 156 160 161
f 156 483 160
f 153 101 92
f 228 414 413
f 439 393 483
f 437 483 435
f 483 393 435
f 479 228 58
f 490 159 488
f 488 159 161
f 161 157 488
f 157 487 488
f 159 492 486
f 495 490 488
f 474 472 153
f 476 472 474
f 497 488 474
f 488 489 474
f 474 489 473
f 489 496 106
f 159 490 493
f 495 493 490
f 491 392 436
f 160 491 162
f 156 161 486
f 486 161 159
f 49 100 492
f 92 484 49
f 160 480 158
f 474 473 476
f 491 160 437
f 489 488 487
f 437 392 491
f 497 153 92
f 92 495 494
f 92 152 495
f 495 152 493
f 152 92 49
f 157 496 487
f 487 496 489
f 497 474 153
f 497 92 494
f 497 494 495
f 493 152 49
f 493 49 492
f 497 495 488
f 26 237 25
f 206 31 205
f 116 345 269
f 116 269 270
f 269 268 270
f 147 135 327
f 135 39 327
f 327 39 132
f 346 368 373
f 498 411 88
f 350 346 88
f 346 498 88
f 346 350 368
f 334 385 291
f 377 334 87
f 383 150 353
f 353 150 149
f 114 499 501
f 502 499 114
f 502 500 430
f 500 502 394
f 501 502 430
f 501 499 502
f 284 303 339
f 5 209 17
f 13 176 12
f 17 18 23
f 30 28 31
f 201 34 185
f 188 35 36
f 201 216 43
f 45 44 242
f 433 66 449
f 63 62 61
f 323 63 344
f 70 432 71
f 74 287 344
f 283 46 102
f 76 247 279
f 90 340 312
f 65 421 54
f 363 454 101
f 103 399 431
f 109 108 106
f 123 246 248
f 121 120 125
f 118 128 239
f 281 142 365
f 133 391 316
f 502 114 436
f 149 382 148
f 194 171 170
f 177 194 170
f 184 193 212
f 186 184 181
f 182 183 240
f 187 191 189
f 187 190 35
f 36 35 200
f 201 204 214
f 206 123 204
f 204 213 214
f 228 409 58
f 230 232 220
f 216 213 243
f 171 31 206
f 264 85 247
f 122 120 121
f 237 26 252
f 261 273 140
f 249 82 263
f 266 270 268
f 271 105 41
f 318 289 265
f 280 261 140
f 144 140 286
f 309 268 311
f 286 140 273
f 290 291 347
f 121 125 287
f 120 62 125
f 336 163 389
f 337 336 338
f 380 338 389
f 345 315 398
f 320 342 95
f 311 350 88
f 137 352 138
f 147 299 146
f 143 139 366
f 339 67 69
f 83 98 357
f 357 308 83
f 399 363 443
f 347 348 306
f 349 66 355
f 370 55 65
f 370 65 62
f 372 500 373
f 348 291 378
f 357 98 99
f 360 361 98
f 70 369 356
f 221 408 326
f 501 391 390
f 39 390 391
f 374 427 385
f 394 436 482
f 450 482 393
f 389 381 397
f 66 433 67
f 380 401 324
f 150 151 462
f 326 388 420
f 359 403 416
f 325 107 475
f 324 401 429
f 437 435 392
f 416 448 447
f 433 57 444
f 448 363 447
f 464 51 465
f 467 362 443
f 428 458 459
f 362 153 472
f 107 491 475
f 470 50 100
f 436 392 482
f 489 485 473
f 100 49 484
f 411 383 353

